<?xml version="1.0" standalone="no"?>
<svg xmlns:xlink="http://www.w3.org/1999/xlink" id="wave" style="transform:rotate(0deg); transition: 0.3s" viewBox="0 0 1440 110" version="1.1" xmlns="http://www.w3.org/2000/svg"><defs><linearGradient id="sw-gradient-0" x1="0" x2="0" y1="1" y2="0"><stop stop-color="rgba(0, 0, 255, 1)" offset="0%"/><stop stop-color="rgba(11, 196, 255, 1)" offset="100%"/></linearGradient></defs><path style="transform:translate(0, 0px); opacity:1" fill="url(#sw-gradient-0)" d="M0,11L30,25.7C60,40,120,70,180,78.8C240,88,300,77,360,60.5C420,44,480,22,540,27.5C600,33,660,66,720,77C780,88,840,77,900,64.2C960,51,1020,37,1080,36.7C1140,37,1200,51,1260,60.5C1320,70,1380,73,1440,78.8C1500,84,1560,92,1620,93.5C1680,95,1740,92,1800,75.2C1860,59,1920,29,1980,27.5C2040,26,2100,51,2160,60.5C2220,70,2280,62,2340,55C2400,48,2460,40,2520,33C2580,26,2640,18,2700,25.7C2760,33,2820,55,2880,64.2C2940,73,3000,70,3060,60.5C3120,51,3180,37,3240,40.3C3300,44,3360,66,3420,71.5C3480,77,3540,66,3600,53.2C3660,40,3720,26,3780,18.3C3840,11,3900,11,3960,16.5C4020,22,4080,33,4140,47.7C4200,62,4260,81,4290,89.8L4320,99L4320,110L4290,110C4260,110,4200,110,4140,110C4080,110,4020,110,3960,110C3900,110,3840,110,3780,110C3720,110,3660,110,3600,110C3540,110,3480,110,3420,110C3360,110,3300,110,3240,110C3180,110,3120,110,3060,110C3000,110,2940,110,2880,110C2820,110,2760,110,2700,110C2640,110,2580,110,2520,110C2460,110,2400,110,2340,110C2280,110,2220,110,2160,110C2100,110,2040,110,1980,110C1920,110,1860,110,1800,110C1740,110,1680,110,1620,110C1560,110,1500,110,1440,110C1380,110,1320,110,1260,110C1200,110,1140,110,1080,110C1020,110,960,110,900,110C840,110,780,110,720,110C660,110,600,110,540,110C480,110,420,110,360,110C300,110,240,110,180,110C120,110,60,110,30,110L0,110Z"/><defs><linearGradient id="sw-gradient-1" x1="0" x2="0" y1="1" y2="0"><stop stop-color="rgba(0, 0, 255, 1)" offset="0%"/><stop stop-color="rgba(11, 196, 255, 1)" offset="100%"/></linearGradient></defs><path style="transform:translate(0, 50px); opacity:0.9" fill="url(#sw-gradient-1)" d="M0,88L30,88C60,88,120,88,180,78.8C240,70,300,51,360,42.2C420,33,480,33,540,27.5C600,22,660,11,720,14.7C780,18,840,37,900,40.3C960,44,1020,33,1080,25.7C1140,18,1200,15,1260,22C1320,29,1380,48,1440,58.7C1500,70,1560,73,1620,73.3C1680,73,1740,70,1800,69.7C1860,70,1920,73,1980,69.7C2040,66,2100,55,2160,51.3C2220,48,2280,51,2340,60.5C2400,70,2460,84,2520,78.8C2580,73,2640,48,2700,31.2C2760,15,2820,7,2880,5.5C2940,4,3000,7,3060,23.8C3120,40,3180,70,3240,69.7C3300,70,3360,40,3420,27.5C3480,15,3540,18,3600,31.2C3660,44,3720,66,3780,78.8C3840,92,3900,95,3960,84.3C4020,73,4080,48,4140,42.2C4200,37,4260,51,4290,58.7L4320,66L4320,110L4290,110C4260,110,4200,110,4140,110C4080,110,4020,110,3960,110C3900,110,3840,110,3780,110C3720,110,3660,110,3600,110C3540,110,3480,110,3420,110C3360,110,3300,110,3240,110C3180,110,3120,110,3060,110C3000,110,2940,110,2880,110C2820,110,2760,110,2700,110C2640,110,2580,110,2520,110C2460,110,2400,110,2340,110C2280,110,2220,110,2160,110C2100,110,2040,110,1980,110C1920,110,1860,110,1800,110C1740,110,1680,110,1620,110C1560,110,1500,110,1440,110C1380,110,1320,110,1260,110C1200,110,1140,110,1080,110C1020,110,960,110,900,110C840,110,780,110,720,110C660,110,600,110,540,110C480,110,420,110,360,110C300,110,240,110,180,110C120,110,60,110,30,110L0,110Z"/></svg>